# xmcd CD database file
#
# Track frame offsets:
#	151
#	23522
#	58929
#	88171
#	124261
#	185024
#	213890
#	235153
#	265227
#	287858
#	313507
#
# Disc length: 4469 seconds
#
# Revision: 0
# Processed by: cddbd v1.5.1PL0 Copyright (c) Steve Scherf et al.
# Submitted via: CDex 1.51
#
DISCID=9f11730b
DTITLE=EL VERDADERO SALSERO - VARIOS - SALSA PARA EL VERDADERO SALSERO
DYEAR=1900
DGENRE=Salsa
TTITLE0=SEÑORA LEY
TTITLE1=SANTO MILITAR
TTITLE2=MI GENTE
TTITLE3=BEMBA COLORA
TTITLE4=BORANDA
TTITLE5=INDESTRUCTIBLE
TTITLE6=SONIDO BESTIAL
TTITLE7=SOMERO DE BAILADORES
TTITLE8=LA SALSA DE HOY
TTITLE9=QUE TE PASA A TI - CARA LINDA
TTITLE10=SIN SENTIMIENTO
EXTD=
EXTT0=
EXTT1=
EXTT2=
EXTT3=
EXTT4=
EXTT5=
EXTT6=
EXTT7=
EXTT8=
EXTT9=
EXTT10=
PLAYORDER=
